<svg width="468" height="71" viewBox="0 0 468 71" fill="none" xmlns="http://www.w3.org/2000/svg">
<mask id="mask0_68_316" style="mask-type:alpha" maskUnits="userSpaceOnUse" x="0" y="0" width="468" height="71">
<path d="M0.584961 0.280029H444.073L467.415 21.28V70.28H23.9265L0.584961 49.28V0.280029Z" fill="black"/>
</mask>
<g mask="url(#mask0_68_316)">
<rect width="497" height="70" transform="translate(-14.5 0.280029)" fill="url(#paint0_linear_68_316)"/>
<path d="M46.8479 42.28L51.6679 27.68H56.9679L61.9679 42.28H58.5679L54.5279 29.94L55.5679 30.36H52.9879L54.0679 29.94L50.1279 42.28H46.8479ZM50.5079 38.66L51.5079 35.94H57.2279L58.2479 38.66H50.5079ZM70.1674 42.66C68.8608 42.66 67.7208 42.4467 66.7474 42.02C65.7741 41.58 64.9674 40.9934 64.3274 40.26C63.7008 39.5267 63.2341 38.7134 62.9274 37.82C62.6208 36.9267 62.4674 36.0334 62.4674 35.14V34.7C62.4674 33.78 62.6208 32.88 62.9274 32C63.2341 31.12 63.6941 30.32 64.3074 29.6C64.9341 28.88 65.7074 28.3067 66.6274 27.88C67.5608 27.4534 68.6341 27.24 69.8474 27.24C71.1674 27.24 72.3341 27.4867 73.3474 27.98C74.3608 28.46 75.1741 29.1334 75.7874 30C76.4008 30.8534 76.7541 31.8467 76.8474 32.98H73.5674C73.4874 32.4467 73.2741 31.98 72.9274 31.58C72.5941 31.18 72.1608 30.8667 71.6274 30.64C71.1074 30.4134 70.5141 30.3 69.8474 30.3C69.2074 30.3 68.6341 30.4134 68.1274 30.64C67.6341 30.8667 67.2074 31.1867 66.8474 31.6C66.5008 32.0134 66.2341 32.5067 66.0474 33.08C65.8741 33.64 65.7874 34.26 65.7874 34.94C65.7874 35.6467 65.8808 36.2934 66.0674 36.88C66.2674 37.4534 66.5541 37.9534 66.9274 38.38C67.3008 38.7934 67.7608 39.1134 68.3074 39.34C68.8674 39.5667 69.4874 39.68 70.1674 39.68C71.0741 39.68 71.8608 39.4934 72.5274 39.12C73.1941 38.7467 73.6741 38.2534 73.9674 37.64L73.5674 39.88V36.4H76.5874V39.52C75.9608 40.5334 75.0941 41.3134 73.9874 41.86C72.8941 42.3934 71.6208 42.66 70.1674 42.66ZM69.7474 37.04V34.68H77.7874V37.04H69.7474ZM79.9076 42.28V27.68H83.1076V42.28H79.9076ZM82.7076 42.28V39.56H89.0876V42.28H82.7076ZM82.7076 36.22V33.5H88.6276V36.22H82.7076ZM82.7076 30.4V27.68H88.9476V30.4H82.7076ZM91.7826 42.28V27.68H97.1626L102.663 39.62H103.343L102.943 39.98V27.68H106.023V42.28H100.603L95.1026 30.34H94.4226L94.8226 29.98V42.28H91.7826ZM112.182 42.36V39.3H114.902C115.582 39.3 116.195 39.2 116.742 39C117.289 38.7867 117.755 38.4934 118.142 38.12C118.529 37.7334 118.822 37.2734 119.022 36.74C119.222 36.1934 119.322 35.5934 119.322 34.94C119.322 34.26 119.222 33.6534 119.022 33.12C118.822 32.5867 118.529 32.1334 118.142 31.76C117.755 31.3867 117.289 31.1067 116.742 30.92C116.195 30.72 115.582 30.62 114.902 30.62H112.182V27.56H114.722C116.042 27.56 117.195 27.7534 118.182 28.14C119.169 28.5267 119.995 29.0534 120.662 29.72C121.329 30.3867 121.822 31.1534 122.142 32.02C122.475 32.8734 122.642 33.7734 122.642 34.72V35.16C122.642 36.04 122.475 36.9134 122.142 37.78C121.822 38.6334 121.329 39.4067 120.662 40.1C119.995 40.78 119.169 41.3267 118.182 41.74C117.195 42.1534 116.042 42.36 114.722 42.36H112.182ZM109.302 42.36V27.56H112.582V42.36H109.302ZM122.922 42.28L127.742 27.68H133.042L138.042 42.28H134.642L130.602 29.94L131.642 30.36H129.062L130.142 29.94L126.202 42.28H122.922ZM126.582 38.66L127.582 35.94H133.302L134.322 38.66H126.582ZM139.947 42.28V27.56H143.227V42.28H139.947ZM148.807 42.28L144.527 36H148.127L152.607 42.28H148.807ZM142.347 37.6V35.02H145.947C146.427 35.02 146.84 34.9267 147.187 34.74C147.547 34.54 147.82 34.2667 148.007 33.92C148.207 33.56 148.307 33.1467 148.307 32.68C148.307 32.2134 148.207 31.8067 148.007 31.46C147.82 31.1 147.547 30.8267 147.187 30.64C146.84 30.44 146.427 30.34 145.947 30.34H142.347V27.56H145.687C146.9 27.56 147.953 27.7467 148.847 28.12C149.74 28.48 150.427 29.02 150.907 29.74C151.387 30.46 151.627 31.3667 151.627 32.46V32.78C151.627 33.86 151.38 34.76 150.887 35.48C150.407 36.1867 149.72 36.72 148.827 37.08C147.947 37.4267 146.9 37.6 145.687 37.6H142.347ZM164.875 42.66C163.502 42.66 162.335 42.4067 161.375 41.9C160.429 41.38 159.709 40.6467 159.215 39.7C158.722 38.7534 158.475 37.6334 158.475 36.34V27.68H161.755V36.46C161.755 37.1 161.875 37.66 162.115 38.14C162.369 38.6067 162.722 38.9667 163.175 39.22C163.642 39.4734 164.209 39.6 164.875 39.6C165.555 39.6 166.122 39.4734 166.575 39.22C167.042 38.9667 167.395 38.6067 167.635 38.14C167.875 37.6734 167.995 37.1134 167.995 36.46V27.68H171.275V36.34C171.275 37.6334 171.029 38.7534 170.535 39.7C170.042 40.6467 169.322 41.38 168.375 41.9C167.429 42.4067 166.262 42.66 164.875 42.66ZM174.283 42.28V27.68H178.803L182.143 35.88H182.523L185.823 27.68H190.423V42.28H187.183V29.82L187.643 29.86L183.783 39.32H180.663L176.783 29.86L177.283 29.82V42.28H174.283ZM192.317 42.28L197.137 27.68H202.437L207.437 42.28H204.037L199.997 29.94L201.037 30.36H198.457L199.537 29.94L195.597 42.28H192.317ZM195.977 38.66L196.977 35.94H202.697L203.717 38.66H195.977ZM213.54 42.28V27.56H216.82V42.28H213.54ZM222.4 42.28L218.12 36H221.72L226.2 42.28H222.4ZM215.94 37.6V35.02H219.54C220.02 35.02 220.434 34.9267 220.78 34.74C221.14 34.54 221.414 34.2667 221.6 33.92C221.8 33.56 221.9 33.1467 221.9 32.68C221.9 32.2134 221.8 31.8067 221.6 31.46C221.414 31.1 221.14 30.8267 220.78 30.64C220.434 30.44 220.02 30.34 219.54 30.34H215.94V27.56H219.28C220.494 27.56 221.547 27.7467 222.44 28.12C223.334 28.48 224.02 29.02 224.5 29.74C224.98 30.46 225.22 31.3667 225.22 32.46V32.78C225.22 33.86 224.974 34.76 224.48 35.48C224 36.1867 223.314 36.72 222.42 37.08C221.54 37.4267 220.494 37.6 219.28 37.6H215.94ZM228.15 42.28V27.68H231.35V42.28H228.15ZM230.95 42.28V39.56H237.33V42.28H230.95ZM230.95 36.22V33.5H236.87V36.22H230.95ZM230.95 30.4V27.68H237.19V30.4H230.95ZM246.145 42.66C244.771 42.66 243.605 42.4067 242.645 41.9C241.698 41.38 240.978 40.6467 240.485 39.7C239.991 38.7534 239.745 37.6334 239.745 36.34V27.68H243.025V36.46C243.025 37.1 243.145 37.66 243.385 38.14C243.638 38.6067 243.991 38.9667 244.445 39.22C244.911 39.4734 245.478 39.6 246.145 39.6C246.825 39.6 247.391 39.4734 247.845 39.22C248.311 38.9667 248.665 38.6067 248.905 38.14C249.145 37.6734 249.265 37.1134 249.265 36.46V27.68H252.545V36.34C252.545 37.6334 252.298 38.7534 251.805 39.7C251.311 40.6467 250.591 41.38 249.645 41.9C248.698 42.4067 247.531 42.66 246.145 42.66ZM255.552 42.28V27.68H260.932L266.432 39.62H267.112L266.712 39.98V27.68H269.792V42.28H264.372L258.872 30.34H258.192L258.592 29.98V42.28H255.552ZM273.112 42.28V27.68H276.392V42.28H273.112ZM278.332 42.28L283.152 27.68H288.452L293.452 42.28H290.052L286.012 29.94L287.052 30.36H284.472L285.552 29.94L281.612 42.28H278.332ZM281.992 38.66L282.992 35.94H288.712L289.732 38.66H281.992ZM287.592 26.56C287.179 26.56 286.819 26.5067 286.512 26.4C286.219 26.2934 285.952 26.1734 285.712 26.04C285.486 25.8934 285.246 25.7667 284.992 25.66C284.739 25.5534 284.446 25.5 284.112 25.5C283.686 25.5 283.312 25.58 282.992 25.74C282.686 25.8867 282.439 26.0734 282.252 26.3L281.772 24.14C281.999 23.86 282.306 23.6267 282.692 23.44C283.079 23.24 283.552 23.14 284.112 23.14C284.539 23.14 284.899 23.1934 285.192 23.3C285.486 23.4067 285.752 23.5334 285.992 23.68C286.232 23.8134 286.479 23.9334 286.732 24.04C286.986 24.1467 287.279 24.2 287.612 24.2C288.039 24.2 288.406 24.12 288.712 23.96C289.032 23.8 289.286 23.6067 289.472 23.38L289.952 25.56C289.726 25.84 289.419 26.08 289.032 26.28C288.646 26.4667 288.166 26.56 287.592 26.56ZM301.732 42.66C300.412 42.66 299.258 42.4334 298.272 41.98C297.298 41.5134 296.492 40.9067 295.852 40.16C295.212 39.4 294.732 38.58 294.412 37.7C294.105 36.82 293.952 35.9734 293.952 35.16V34.72C293.952 33.8134 294.112 32.92 294.432 32.04C294.765 31.1467 295.258 30.34 295.912 29.62C296.565 28.9 297.378 28.3267 298.352 27.9C299.325 27.46 300.452 27.24 301.732 27.24C303.012 27.24 304.138 27.46 305.112 27.9C306.085 28.3267 306.898 28.9 307.552 29.62C308.205 30.34 308.698 31.1467 309.032 32.04C309.365 32.92 309.532 33.8134 309.532 34.72V35.16C309.532 35.9734 309.372 36.82 309.052 37.7C308.732 38.58 308.252 39.4 307.612 40.16C306.972 40.9067 306.158 41.5134 305.172 41.98C304.198 42.4334 303.052 42.66 301.732 42.66ZM301.732 39.6C302.425 39.6 303.045 39.48 303.592 39.24C304.152 39 304.625 38.6667 305.012 38.24C305.412 37.8134 305.712 37.32 305.912 36.76C306.112 36.2 306.212 35.6 306.212 34.96C306.212 34.28 306.105 33.66 305.892 33.1C305.692 32.5267 305.392 32.0334 304.992 31.62C304.605 31.1934 304.138 30.8667 303.592 30.64C303.045 30.4134 302.425 30.3 301.732 30.3C301.038 30.3 300.418 30.4134 299.872 30.64C299.325 30.8667 298.852 31.1934 298.452 31.62C298.065 32.0334 297.772 32.5267 297.572 33.1C297.372 33.66 297.272 34.28 297.272 34.96C297.272 35.6 297.372 36.2 297.572 36.76C297.772 37.32 298.065 37.8134 298.452 38.24C298.852 38.6667 299.325 39 299.872 39.24C300.418 39.48 301.038 39.6 301.732 39.6ZM323.136 42.66C321.83 42.66 320.69 42.4467 319.716 42.02C318.743 41.58 317.936 40.9934 317.296 40.26C316.67 39.5267 316.203 38.7134 315.896 37.82C315.59 36.9267 315.436 36.0334 315.436 35.14V34.7C315.436 33.78 315.59 32.88 315.896 32C316.203 31.12 316.663 30.32 317.276 29.6C317.903 28.88 318.676 28.3067 319.596 27.88C320.53 27.4534 321.603 27.24 322.816 27.24C324.136 27.24 325.303 27.4867 326.316 27.98C327.33 28.46 328.143 29.1334 328.756 30C329.37 30.8534 329.723 31.8467 329.816 32.98H326.536C326.456 32.4467 326.243 31.98 325.896 31.58C325.563 31.18 325.13 30.8667 324.596 30.64C324.076 30.4134 323.483 30.3 322.816 30.3C322.176 30.3 321.603 30.4134 321.096 30.64C320.603 30.8667 320.176 31.1867 319.816 31.6C319.47 32.0134 319.203 32.5067 319.016 33.08C318.843 33.64 318.756 34.26 318.756 34.94C318.756 35.6467 318.85 36.2934 319.036 36.88C319.236 37.4534 319.523 37.9534 319.896 38.38C320.27 38.7934 320.73 39.1134 321.276 39.34C321.836 39.5667 322.456 39.68 323.136 39.68C324.043 39.68 324.83 39.4934 325.496 39.12C326.163 38.7467 326.643 38.2534 326.936 37.64L326.536 39.88V36.4H329.556V39.52C328.93 40.5334 328.063 41.3134 326.956 41.86C325.863 42.3934 324.59 42.66 323.136 42.66ZM322.716 37.04V34.68H330.756V37.04H322.716ZM332.876 42.28V27.56H336.156V42.28H332.876ZM341.736 42.28L337.456 36H341.056L345.536 42.28H341.736ZM335.276 37.6V35.02H338.876C339.356 35.02 339.77 34.9267 340.116 34.74C340.476 34.54 340.75 34.2667 340.936 33.92C341.136 33.56 341.236 33.1467 341.236 32.68C341.236 32.2134 341.136 31.8067 340.936 31.46C340.75 31.1 340.476 30.8267 340.116 30.64C339.77 30.44 339.356 30.34 338.876 30.34H335.276V27.56H338.616C339.83 27.56 340.883 27.7467 341.776 28.12C342.67 28.48 343.356 29.02 343.836 29.74C344.316 30.46 344.556 31.3667 344.556 32.46V32.78C344.556 33.86 344.31 34.76 343.816 35.48C343.336 36.1867 342.65 36.72 341.756 37.08C340.876 37.4267 339.83 37.6 338.616 37.6H335.276ZM346.106 42.28L350.926 27.68H356.226L361.226 42.28H357.826L353.786 29.94L354.826 30.36H352.246L353.326 29.94L349.386 42.28H346.106ZM349.766 38.66L350.766 35.94H356.486L357.506 38.66H349.766ZM364.741 42.28V30.14H368.021V42.28H364.741ZM360.641 30.54V27.68H372.141V30.54H360.641ZM380.285 42.66C378.912 42.66 377.745 42.4067 376.785 41.9C375.839 41.38 375.119 40.6467 374.625 39.7C374.132 38.7534 373.885 37.6334 373.885 36.34V27.68H377.165V36.46C377.165 37.1 377.285 37.66 377.525 38.14C377.779 38.6067 378.132 38.9667 378.585 39.22C379.052 39.4734 379.619 39.6 380.285 39.6C380.965 39.6 381.532 39.4734 381.985 39.22C382.452 38.9667 382.805 38.6067 383.045 38.14C383.285 37.6734 383.405 37.1134 383.405 36.46V27.68H386.685V36.34C386.685 37.6334 386.439 38.7534 385.945 39.7C385.452 40.6467 384.732 41.38 383.785 41.9C382.839 42.4067 381.672 42.66 380.285 42.66ZM389.733 42.28V27.68H393.013V42.28H389.733ZM399.233 42.28V30.14H402.513V42.28H399.233ZM395.133 30.54V27.68H406.633V30.54H395.133ZM406.028 42.28L410.848 27.68H416.148L421.148 42.28H417.748L413.708 29.94L414.748 30.36H412.168L413.248 29.94L409.308 42.28H406.028ZM409.688 38.66L410.688 35.94H416.408L417.428 38.66H409.688Z" fill="white"/>
</g>
<defs>
<linearGradient id="paint0_linear_68_316" x1="0" y1="35" x2="497" y2="35" gradientUnits="userSpaceOnUse">
<stop stop-color="#141414"/>
<stop offset="0.5" stop-color="#252525"/>
<stop offset="1"/>
</linearGradient>
</defs>
</svg>
