<svg width="467" height="71" viewBox="0 0 467 71" fill="none" xmlns="http://www.w3.org/2000/svg">
<mask id="mask0_68_379" style="mask-type:alpha" maskUnits="userSpaceOnUse" x="0" y="0" width="467" height="71">
<path d="M0 0.780273H443.488L466.83 21.7803V70.7803H23.3415L0 49.7803V0.780273Z" fill="black"/>
</mask>
<g mask="url(#mask0_68_379)">
<rect width="515" height="70" transform="translate(-24 0.780273)" fill="url(#paint0_linear_68_379)"/>
<path d="M41.9946 42.8603V39.8003H44.7146C45.3946 39.8003 46.0079 39.7003 46.5546 39.5003C47.1013 39.2869 47.5679 38.9936 47.9546 38.6203C48.3413 38.2336 48.6346 37.7736 48.8346 37.2403C49.0346 36.6936 49.1346 36.0936 49.1346 35.4403C49.1346 34.7603 49.0346 34.1536 48.8346 33.6203C48.6346 33.0869 48.3413 32.6336 47.9546 32.2603C47.5679 31.8869 47.1013 31.6069 46.5546 31.4203C46.0079 31.2203 45.3946 31.1203 44.7146 31.1203H41.9946V28.0603H44.5346C45.8546 28.0603 47.0079 28.2536 47.9946 28.6403C48.9813 29.0269 49.8079 29.5536 50.4746 30.2203C51.1413 30.8869 51.6346 31.6536 51.9546 32.5203C52.2879 33.3736 52.4546 34.2736 52.4546 35.2203V35.6603C52.4546 36.5403 52.2879 37.4136 51.9546 38.2803C51.6346 39.1336 51.1413 39.9069 50.4746 40.6003C49.8079 41.2803 48.9813 41.8269 47.9946 42.2403C47.0079 42.6536 45.8546 42.8603 44.5346 42.8603H41.9946ZM39.1146 42.8603V28.0603H42.3946V42.8603H39.1146ZM54.7396 42.7803V28.1803H57.9396V42.7803H54.7396ZM57.5396 42.7803V40.0603H63.9196V42.7803H57.5396ZM57.5396 36.7203V34.0003H63.4596V36.7203H57.5396ZM57.5396 30.9003V28.1803H63.7796V30.9003H57.5396ZM71.597 43.1603C70.277 43.1603 69.1636 42.9536 68.257 42.5403C67.3503 42.1136 66.6636 41.5403 66.197 40.8203C65.7303 40.0869 65.497 39.2469 65.497 38.3003H68.677C68.677 38.6736 68.777 39.0203 68.977 39.3403C69.1903 39.6603 69.5103 39.9203 69.937 40.1203C70.3636 40.3069 70.917 40.4003 71.597 40.4003C72.2103 40.4003 72.7236 40.3203 73.137 40.1603C73.5503 40.0003 73.8636 39.7803 74.077 39.5003C74.2903 39.2069 74.397 38.8736 74.397 38.5003C74.397 38.0336 74.197 37.6669 73.797 37.4003C73.397 37.1203 72.7503 36.9403 71.857 36.8603L70.757 36.7603C69.3036 36.6403 68.1436 36.1869 67.277 35.4003C66.4103 34.6136 65.977 33.5736 65.977 32.2803C65.977 31.3469 66.197 30.5403 66.637 29.8603C67.0903 29.1803 67.717 28.6603 68.517 28.3003C69.317 27.9269 70.2636 27.7403 71.357 27.7403C72.5036 27.7403 73.4836 27.9403 74.297 28.3403C75.1236 28.7269 75.757 29.2803 76.197 30.0003C76.637 30.7069 76.857 31.5403 76.857 32.5003H73.657C73.657 32.1403 73.5703 31.8136 73.397 31.5203C73.2236 31.2136 72.9636 30.9669 72.617 30.7803C72.2836 30.5936 71.8636 30.5003 71.357 30.5003C70.877 30.5003 70.4703 30.5803 70.137 30.7403C69.817 30.9003 69.577 31.1203 69.417 31.4003C69.257 31.6669 69.177 31.9603 69.177 32.2803C69.177 32.6936 69.3236 33.0536 69.617 33.3603C69.9103 33.6669 70.3903 33.8469 71.057 33.9003L72.177 34.0003C73.2436 34.0936 74.1836 34.3269 74.997 34.7003C75.8103 35.0603 76.4436 35.5603 76.897 36.2003C77.3636 36.8269 77.597 37.5936 77.597 38.5003C77.597 39.4336 77.3503 40.2536 76.857 40.9603C76.377 41.6536 75.6903 42.1936 74.797 42.5803C73.9036 42.9669 72.837 43.1603 71.597 43.1603ZM79.8568 42.7803V28.1803H83.0568V42.7803H79.8568ZM82.6568 42.7803V40.0603H89.0368V42.7803H82.6568ZM82.6568 36.7203V34.0003H88.5768V36.7203H82.6568ZM82.6568 30.9003V28.1803H88.8968V30.9003H82.6568ZM95.937 43.1603C94.8303 43.1603 93.8703 42.9536 93.057 42.5403C92.257 42.1136 91.637 41.5003 91.197 40.7003C90.7703 39.9003 90.557 38.9269 90.557 37.7803V37.0403H93.797V37.9603C93.797 38.6003 93.9836 39.1203 94.357 39.5203C94.7436 39.9069 95.2703 40.1003 95.937 40.1003C96.5903 40.1003 97.1036 39.9069 97.477 39.5203C97.8636 39.1203 98.057 38.6003 98.057 37.9603V30.6403H101.337V37.7803C101.337 38.9269 101.117 39.9003 100.677 40.7003C100.25 41.5003 99.6303 42.1136 98.817 42.5403C98.017 42.9536 97.057 43.1603 95.937 43.1603ZM92.257 31.0403V28.1803H101.337V31.0403H92.257ZM111.369 43.1603C110.049 43.1603 108.895 42.9336 107.909 42.4803C106.935 42.0136 106.129 41.4069 105.489 40.6603C104.849 39.9003 104.369 39.0803 104.049 38.2003C103.742 37.3203 103.589 36.4736 103.589 35.6603V35.2203C103.589 34.3136 103.749 33.4203 104.069 32.5403C104.402 31.6469 104.895 30.8403 105.549 30.1203C106.202 29.4003 107.015 28.8269 107.989 28.4003C108.962 27.9603 110.089 27.7403 111.369 27.7403C112.649 27.7403 113.775 27.9603 114.749 28.4003C115.722 28.8269 116.535 29.4003 117.189 30.1203C117.842 30.8403 118.335 31.6469 118.669 32.5403C119.002 33.4203 119.169 34.3136 119.169 35.2203V35.6603C119.169 36.4736 119.009 37.3203 118.689 38.2003C118.369 39.0803 117.889 39.9003 117.249 40.6603C116.609 41.4069 115.795 42.0136 114.809 42.4803C113.835 42.9336 112.689 43.1603 111.369 43.1603ZM111.369 40.1003C112.062 40.1003 112.682 39.9803 113.229 39.7403C113.789 39.5003 114.262 39.1669 114.649 38.7403C115.049 38.3136 115.349 37.8203 115.549 37.2603C115.749 36.7003 115.849 36.1003 115.849 35.4603C115.849 34.7803 115.742 34.1603 115.529 33.6003C115.329 33.0269 115.029 32.5336 114.629 32.1203C114.242 31.6936 113.775 31.3669 113.229 31.1403C112.682 30.9136 112.062 30.8003 111.369 30.8003C110.675 30.8003 110.055 30.9136 109.509 31.1403C108.962 31.3669 108.489 31.6936 108.089 32.1203C107.702 32.5336 107.409 33.0269 107.209 33.6003C107.009 34.1603 106.909 34.7803 106.909 35.4603C106.909 36.1003 107.009 36.7003 107.209 37.2603C107.409 37.8203 107.702 38.3136 108.089 38.7403C108.489 39.1669 108.962 39.5003 109.509 39.7403C110.055 39.9803 110.675 40.1003 111.369 40.1003ZM132.553 43.1603C131.233 43.1603 130.1 42.9336 129.153 42.4803C128.206 42.0136 127.433 41.4069 126.833 40.6603C126.233 39.9003 125.786 39.0869 125.493 38.2203C125.213 37.3403 125.073 36.4869 125.073 35.6603V35.2203C125.073 34.3136 125.22 33.4203 125.513 32.5403C125.806 31.6469 126.253 30.8403 126.853 30.1203C127.466 29.4003 128.233 28.8269 129.153 28.4003C130.086 27.9603 131.186 27.7403 132.453 27.7403C133.773 27.7403 134.94 27.9869 135.953 28.4803C136.966 28.9736 137.773 29.6603 138.373 30.5403C138.986 31.4069 139.346 32.4269 139.453 33.6003H136.153C136.06 33.0136 135.846 32.5136 135.513 32.1003C135.18 31.6869 134.746 31.3669 134.213 31.1403C133.693 30.9136 133.106 30.8003 132.453 30.8003C131.8 30.8003 131.22 30.9136 130.713 31.1403C130.206 31.3669 129.78 31.6869 129.433 32.1003C129.1 32.5136 128.84 33.0069 128.653 33.5803C128.48 34.1403 128.393 34.7669 128.393 35.4603C128.393 36.1403 128.48 36.7669 128.653 37.3403C128.84 37.9003 129.106 38.3936 129.453 38.8203C129.813 39.2336 130.253 39.5536 130.773 39.7803C131.293 39.9936 131.886 40.1003 132.553 40.1003C133.566 40.1003 134.42 39.8536 135.113 39.3603C135.82 38.8669 136.246 38.1869 136.393 37.3203H139.673C139.553 38.3869 139.193 39.3669 138.593 40.2603C138.006 41.1403 137.2 41.8469 136.173 42.3803C135.16 42.9003 133.953 43.1603 132.553 43.1603ZM148.849 43.1603C147.529 43.1603 146.376 42.9336 145.389 42.4803C144.416 42.0136 143.609 41.4069 142.969 40.6603C142.329 39.9003 141.849 39.0803 141.529 38.2003C141.222 37.3203 141.069 36.4736 141.069 35.6603V35.2203C141.069 34.3136 141.229 33.4203 141.549 32.5403C141.882 31.6469 142.376 30.8403 143.029 30.1203C143.682 29.4003 144.496 28.8269 145.469 28.4003C146.442 27.9603 147.569 27.7403 148.849 27.7403C150.129 27.7403 151.256 27.9603 152.229 28.4003C153.202 28.8269 154.016 29.4003 154.669 30.1203C155.322 30.8403 155.816 31.6469 156.149 32.5403C156.482 33.4203 156.649 34.3136 156.649 35.2203V35.6603C156.649 36.4736 156.489 37.3203 156.169 38.2003C155.849 39.0803 155.369 39.9003 154.729 40.6603C154.089 41.4069 153.276 42.0136 152.289 42.4803C151.316 42.9336 150.169 43.1603 148.849 43.1603ZM148.849 40.1003C149.542 40.1003 150.162 39.9803 150.709 39.7403C151.269 39.5003 151.742 39.1669 152.129 38.7403C152.529 38.3136 152.829 37.8203 153.029 37.2603C153.229 36.7003 153.329 36.1003 153.329 35.4603C153.329 34.7803 153.222 34.1603 153.009 33.6003C152.809 33.0269 152.509 32.5336 152.109 32.1203C151.722 31.6936 151.256 31.3669 150.709 31.1403C150.162 30.9136 149.542 30.8003 148.849 30.8003C148.156 30.8003 147.536 30.9136 146.989 31.1403C146.442 31.3669 145.969 31.6936 145.569 32.1203C145.182 32.5336 144.889 33.0269 144.689 33.6003C144.489 34.1603 144.389 34.7803 144.389 35.4603C144.389 36.1003 144.489 36.7003 144.689 37.2603C144.889 37.8203 145.182 38.3136 145.569 38.7403C145.969 39.1669 146.442 39.5003 146.989 39.7403C147.536 39.9803 148.156 40.1003 148.849 40.1003ZM159.134 42.7803V28.1803H164.514L170.014 40.1203H170.694L170.294 40.4803V28.1803H173.374V42.7803H167.954L162.454 30.8403H161.774L162.174 30.4803V42.7803H159.134ZM186.094 42.7803V28.1803H189.374V42.7803H186.094ZM176.654 42.7803V28.1803H179.934V42.7803H176.654ZM179.354 36.8803V34.0003H186.674V36.8803H179.354ZM192.65 42.7803V28.1803H195.85V42.7803H192.65ZM195.45 42.7803V40.0603H201.83V42.7803H195.45ZM195.45 36.7203V34.0003H201.37V36.7203H195.45ZM195.45 30.9003V28.1803H201.69V30.9003H195.45ZM211.069 43.1603C209.749 43.1603 208.615 42.9336 207.669 42.4803C206.722 42.0136 205.949 41.4069 205.349 40.6603C204.749 39.9003 204.302 39.0869 204.009 38.2203C203.729 37.3403 203.589 36.4869 203.589 35.6603V35.2203C203.589 34.3136 203.735 33.4203 204.029 32.5403C204.322 31.6469 204.769 30.8403 205.369 30.1203C205.982 29.4003 206.749 28.8269 207.669 28.4003C208.602 27.9603 209.702 27.7403 210.969 27.7403C212.289 27.7403 213.455 27.9869 214.469 28.4803C215.482 28.9736 216.289 29.6603 216.889 30.5403C217.502 31.4069 217.862 32.4269 217.969 33.6003H214.669C214.575 33.0136 214.362 32.5136 214.029 32.1003C213.695 31.6869 213.262 31.3669 212.729 31.1403C212.209 30.9136 211.622 30.8003 210.969 30.8003C210.315 30.8003 209.735 30.9136 209.229 31.1403C208.722 31.3669 208.295 31.6869 207.949 32.1003C207.615 32.5136 207.355 33.0069 207.169 33.5803C206.995 34.1403 206.909 34.7669 206.909 35.4603C206.909 36.1403 206.995 36.7669 207.169 37.3403C207.355 37.9003 207.622 38.3936 207.969 38.8203C208.329 39.2336 208.769 39.5536 209.289 39.7803C209.809 39.9936 210.402 40.1003 211.069 40.1003C212.082 40.1003 212.935 39.8536 213.629 39.3603C214.335 38.8669 214.762 38.1869 214.909 37.3203H218.189C218.069 38.3869 217.709 39.3669 217.109 40.2603C216.522 41.1403 215.715 41.8469 214.689 42.3803C213.675 42.9003 212.469 43.1603 211.069 43.1603ZM220.365 42.7803V28.1803H223.565V42.7803H220.365ZM223.165 42.7803V40.0603H229.545V42.7803H223.165ZM223.165 36.7203V34.0003H229.085V36.7203H223.165ZM223.165 30.9003V28.1803H229.405V30.9003H223.165ZM232.24 42.7803V28.0603H235.52V42.7803H232.24ZM241.1 42.7803L236.82 36.5003H240.42L244.9 42.7803H241.1ZM234.64 38.1003V35.5203H238.24C238.72 35.5203 239.133 35.4269 239.48 35.2403C239.84 35.0403 240.113 34.7669 240.3 34.4203C240.5 34.0603 240.6 33.6469 240.6 33.1803C240.6 32.7136 240.5 32.3069 240.3 31.9603C240.113 31.6003 239.84 31.3269 239.48 31.1403C239.133 30.9403 238.72 30.8403 238.24 30.8403H234.64V28.0603H237.98C239.193 28.0603 240.246 28.2469 241.14 28.6203C242.033 28.9803 242.72 29.5203 243.2 30.2403C243.68 30.9603 243.92 31.8669 243.92 32.9603V33.2803C243.92 34.3603 243.673 35.2603 243.18 35.9803C242.7 36.6869 242.013 37.2203 241.12 37.5803C240.24 37.9269 239.193 38.1003 237.98 38.1003H234.64ZM251.048 42.7803V28.1803H255.568L258.908 36.3803H259.288L262.588 28.1803H267.188V42.7803H263.948V30.3203L264.408 30.3603L260.548 39.8203H257.428L253.548 30.3603L254.048 30.3203V42.7803H251.048ZM269.082 42.7803L273.902 28.1803H279.202L284.202 42.7803H280.802L276.762 30.4403L277.802 30.8603H275.222L276.302 30.4403L272.362 42.7803H269.082ZM272.742 39.1603L273.742 36.4403H279.462L280.482 39.1603H272.742ZM286.147 42.7803V28.1803H289.427V42.7803H286.147ZM297.827 43.1603C296.507 43.1603 295.394 42.9536 294.487 42.5403C293.581 42.1136 292.894 41.5403 292.427 40.8203C291.961 40.0869 291.727 39.2469 291.727 38.3003H294.907C294.907 38.6736 295.007 39.0203 295.207 39.3403C295.421 39.6603 295.741 39.9203 296.167 40.1203C296.594 40.3069 297.147 40.4003 297.827 40.4003C298.441 40.4003 298.954 40.3203 299.367 40.1603C299.781 40.0003 300.094 39.7803 300.307 39.5003C300.521 39.2069 300.627 38.8736 300.627 38.5003C300.627 38.0336 300.427 37.6669 300.027 37.4003C299.627 37.1203 298.981 36.9403 298.087 36.8603L296.987 36.7603C295.534 36.6403 294.374 36.1869 293.507 35.4003C292.641 34.6136 292.207 33.5736 292.207 32.2803C292.207 31.3469 292.427 30.5403 292.867 29.8603C293.321 29.1803 293.947 28.6603 294.747 28.3003C295.547 27.9269 296.494 27.7403 297.587 27.7403C298.734 27.7403 299.714 27.9403 300.527 28.3403C301.354 28.7269 301.987 29.2803 302.427 30.0003C302.867 30.7069 303.087 31.5403 303.087 32.5003H299.887C299.887 32.1403 299.801 31.8136 299.627 31.5203C299.454 31.2136 299.194 30.9669 298.847 30.7803C298.514 30.5936 298.094 30.5003 297.587 30.5003C297.107 30.5003 296.701 30.5803 296.367 30.7403C296.047 30.9003 295.807 31.1203 295.647 31.4003C295.487 31.6669 295.407 31.9603 295.407 32.2803C295.407 32.6936 295.554 33.0536 295.847 33.3603C296.141 33.6669 296.621 33.8469 297.287 33.9003L298.407 34.0003C299.474 34.0936 300.414 34.3269 301.227 34.7003C302.041 35.0603 302.674 35.5603 303.127 36.2003C303.594 36.8269 303.827 37.5936 303.827 38.5003C303.827 39.4336 303.581 40.2536 303.087 40.9603C302.607 41.6536 301.921 42.1936 301.027 42.5803C300.134 42.9669 299.067 43.1603 297.827 43.1603ZM308.906 42.7803L313.726 28.1803H319.026L324.026 42.7803H320.626L316.586 30.4403L317.626 30.8603H315.046L316.126 30.4403L312.186 42.7803H308.906ZM312.566 39.1603L313.566 36.4403H319.286L320.306 39.1603H312.566ZM337.13 43.1603C335.81 43.1603 334.657 42.9336 333.67 42.4803C332.697 42.0136 331.89 41.4069 331.25 40.6603C330.61 39.9003 330.13 39.0803 329.81 38.2003C329.504 37.3203 329.35 36.4736 329.35 35.6603V35.2203C329.35 34.3136 329.51 33.4203 329.83 32.5403C330.164 31.6469 330.657 30.8403 331.31 30.1203C331.964 29.4003 332.777 28.8269 333.75 28.4003C334.724 27.9603 335.85 27.7403 337.13 27.7403C338.41 27.7403 339.537 27.9603 340.51 28.4003C341.484 28.8269 342.297 29.4003 342.95 30.1203C343.604 30.8403 344.097 31.6469 344.43 32.5403C344.764 33.4203 344.93 34.3136 344.93 35.2203V35.6603C344.93 36.4736 344.77 37.3203 344.45 38.2003C344.13 39.0803 343.65 39.9003 343.01 40.6603C342.37 41.4069 341.557 42.0136 340.57 42.4803C339.597 42.9336 338.45 43.1603 337.13 43.1603ZM337.13 40.1003C337.824 40.1003 338.444 39.9803 338.99 39.7403C339.55 39.5003 340.024 39.1669 340.41 38.7403C340.81 38.3136 341.11 37.8203 341.31 37.2603C341.51 36.7003 341.61 36.1003 341.61 35.4603C341.61 34.7803 341.504 34.1603 341.29 33.6003C341.09 33.0269 340.79 32.5336 340.39 32.1203C340.004 31.6936 339.537 31.3669 338.99 31.1403C338.444 30.9136 337.824 30.8003 337.13 30.8003C336.437 30.8003 335.817 30.9136 335.27 31.1403C334.724 31.3669 334.25 31.6936 333.85 32.1203C333.464 32.5336 333.17 33.0269 332.97 33.6003C332.77 34.1603 332.67 34.7803 332.67 35.4603C332.67 36.1003 332.77 36.7003 332.97 37.2603C333.17 37.8203 333.464 38.3136 333.85 38.7403C334.25 39.1669 334.724 39.5003 335.27 39.7403C335.817 39.9803 336.437 40.1003 337.13 40.1003ZM353.535 43.1603C352.162 43.1603 350.995 42.9069 350.035 42.4003C349.089 41.8803 348.369 41.1469 347.875 40.2003C347.382 39.2536 347.135 38.1336 347.135 36.8403V28.1803H350.415V36.9603C350.415 37.6003 350.535 38.1603 350.775 38.6403C351.029 39.1069 351.382 39.4669 351.835 39.7203C352.302 39.9736 352.869 40.1003 353.535 40.1003C354.215 40.1003 354.782 39.9736 355.235 39.7203C355.702 39.4669 356.055 39.1069 356.295 38.6403C356.535 38.1736 356.655 37.6136 356.655 36.9603V28.1803H359.935V36.8403C359.935 38.1336 359.689 39.2536 359.195 40.2003C358.702 41.1469 357.982 41.8803 357.035 42.4003C356.089 42.9069 354.922 43.1603 353.535 43.1603ZM365.804 42.7803V30.6403H369.084V42.7803H365.804ZM361.704 31.0403V28.1803H373.204V31.0403H361.704ZM373.005 42.7803V39.2003H376.525V42.7803H373.005ZM385.17 43.1603C383.85 43.1603 382.717 42.9336 381.77 42.4803C380.823 42.0136 380.05 41.4069 379.45 40.6603C378.85 39.9003 378.403 39.0869 378.11 38.2203C377.83 37.3403 377.69 36.4869 377.69 35.6603V35.2203C377.69 34.3136 377.837 33.4203 378.13 32.5403C378.423 31.6469 378.87 30.8403 379.47 30.1203C380.083 29.4003 380.85 28.8269 381.77 28.4003C382.703 27.9603 383.803 27.7403 385.07 27.7403C386.39 27.7403 387.557 27.9869 388.57 28.4803C389.583 28.9736 390.39 29.6603 390.99 30.5403C391.603 31.4069 391.963 32.4269 392.07 33.6003H388.77C388.677 33.0136 388.463 32.5136 388.13 32.1003C387.797 31.6869 387.363 31.3669 386.83 31.1403C386.31 30.9136 385.723 30.8003 385.07 30.8003C384.417 30.8003 383.837 30.9136 383.33 31.1403C382.823 31.3669 382.397 31.6869 382.05 32.1003C381.717 32.5136 381.457 33.0069 381.27 33.5803C381.097 34.1403 381.01 34.7669 381.01 35.4603C381.01 36.1403 381.097 36.7669 381.27 37.3403C381.457 37.9003 381.723 38.3936 382.07 38.8203C382.43 39.2336 382.87 39.5536 383.39 39.7803C383.91 39.9936 384.503 40.1003 385.17 40.1003C386.183 40.1003 387.037 39.8536 387.73 39.3603C388.437 38.8669 388.863 38.1869 389.01 37.3203H392.29C392.17 38.3869 391.81 39.3669 391.21 40.2603C390.623 41.1403 389.817 41.8469 388.79 42.3803C387.777 42.9003 386.57 43.1603 385.17 43.1603ZM401.466 43.1603C400.146 43.1603 398.993 42.9336 398.006 42.4803C397.033 42.0136 396.226 41.4069 395.586 40.6603C394.946 39.9003 394.466 39.0803 394.146 38.2003C393.84 37.3203 393.686 36.4736 393.686 35.6603V35.2203C393.686 34.3136 393.846 33.4203 394.166 32.5403C394.5 31.6469 394.993 30.8403 395.646 30.1203C396.3 29.4003 397.113 28.8269 398.086 28.4003C399.06 27.9603 400.186 27.7403 401.466 27.7403C402.746 27.7403 403.873 27.9603 404.846 28.4003C405.82 28.8269 406.633 29.4003 407.286 30.1203C407.94 30.8403 408.433 31.6469 408.766 32.5403C409.1 33.4203 409.266 34.3136 409.266 35.2203V35.6603C409.266 36.4736 409.106 37.3203 408.786 38.2003C408.466 39.0803 407.986 39.9003 407.346 40.6603C406.706 41.4069 405.893 42.0136 404.906 42.4803C403.933 42.9336 402.786 43.1603 401.466 43.1603ZM401.466 40.1003C402.16 40.1003 402.78 39.9803 403.326 39.7403C403.886 39.5003 404.36 39.1669 404.746 38.7403C405.146 38.3136 405.446 37.8203 405.646 37.2603C405.846 36.7003 405.946 36.1003 405.946 35.4603C405.946 34.7803 405.84 34.1603 405.626 33.6003C405.426 33.0269 405.126 32.5336 404.726 32.1203C404.34 31.6936 403.873 31.3669 403.326 31.1403C402.78 30.9136 402.16 30.8003 401.466 30.8003C400.773 30.8003 400.153 30.9136 399.606 31.1403C399.06 31.3669 398.586 31.6936 398.186 32.1203C397.8 32.5336 397.506 33.0269 397.306 33.6003C397.106 34.1603 397.006 34.7803 397.006 35.4603C397.006 36.1003 397.106 36.7003 397.306 37.2603C397.506 37.8203 397.8 38.3136 398.186 38.7403C398.586 39.1669 399.06 39.5003 399.606 39.7403C400.153 39.9803 400.773 40.1003 401.466 40.1003ZM411.751 42.7803V28.1803H416.271L419.611 36.3803H419.991L423.291 28.1803H427.891V42.7803H424.651V30.3203L425.111 30.3603L421.251 39.8203H418.131L414.251 30.3603L414.751 30.3203V42.7803H411.751Z" fill="white"/>
</g>
<defs>
<linearGradient id="paint0_linear_68_379" x1="119.097" y1="285.915" x2="543.563" y2="51.7828" gradientUnits="userSpaceOnUse">
<stop stop-color="#FBC327"/>
<stop offset="0.333333" stop-color="#FD9914"/>
<stop offset="0.666667" stop-color="#FE840A"/>
<stop offset="1" stop-color="#FF6F00"/>
</linearGradient>
</defs>
</svg>
