<svg width="467" height="70" viewBox="0 0 467 70" fill="none" xmlns="http://www.w3.org/2000/svg">
<mask id="mask0_68_127" style="mask-type:alpha" maskUnits="userSpaceOnUse" x="0" y="0" width="467" height="70">
<path d="M0 0H443.488L466.83 21V70H23.3415L0 49V0Z" fill="black"/>
</mask>
<g mask="url(#mask0_68_127)">
<rect width="497" height="70" transform="translate(-15.085)" fill="url(#paint0_linear_68_127)"/>
<path d="M46.2629 42L51.0829 27.4H56.3829L61.3829 42H57.9829L53.9429 29.66L54.9829 30.08H52.4029L53.4829 29.66L49.5429 42H46.2629ZM49.9229 38.38L50.9229 35.66H56.6429L57.6629 38.38H49.9229ZM69.5825 42.38C68.2758 42.38 67.1358 42.1667 66.1625 41.74C65.1891 41.3 64.3825 40.7133 63.7425 39.98C63.1158 39.2467 62.6491 38.4333 62.3425 37.54C62.0358 36.6467 61.8825 35.7533 61.8825 34.86V34.42C61.8825 33.5 62.0358 32.6 62.3425 31.72C62.6491 30.84 63.1091 30.04 63.7225 29.32C64.3491 28.6 65.1225 28.0267 66.0425 27.6C66.9758 27.1733 68.0491 26.96 69.2625 26.96C70.5825 26.96 71.7491 27.2067 72.7625 27.7C73.7758 28.18 74.5891 28.8533 75.2025 29.72C75.8158 30.5733 76.1691 31.5667 76.2625 32.7H72.9825C72.9025 32.1667 72.6891 31.7 72.3425 31.3C72.0091 30.9 71.5758 30.5867 71.0425 30.36C70.5225 30.1333 69.9291 30.02 69.2625 30.02C68.6225 30.02 68.0491 30.1333 67.5425 30.36C67.0491 30.5867 66.6225 30.9067 66.2625 31.32C65.9158 31.7333 65.6491 32.2267 65.4625 32.8C65.2891 33.36 65.2025 33.98 65.2025 34.66C65.2025 35.3667 65.2958 36.0133 65.4825 36.6C65.6825 37.1733 65.9691 37.6733 66.3425 38.1C66.7158 38.5133 67.1758 38.8333 67.7225 39.06C68.2825 39.2867 68.9025 39.4 69.5825 39.4C70.4891 39.4 71.2758 39.2133 71.9425 38.84C72.6091 38.4667 73.0891 37.9733 73.3825 37.36L72.9825 39.6V36.12H76.0025V39.24C75.3758 40.2533 74.5091 41.0333 73.4025 41.58C72.3091 42.1133 71.0358 42.38 69.5825 42.38ZM69.1625 36.76V34.4H77.2025V36.76H69.1625ZM79.3226 42V27.4H82.5226V42H79.3226ZM82.1226 42V39.28H88.5026V42H82.1226ZM82.1226 35.94V33.22H88.0426V35.94H82.1226ZM82.1226 30.12V27.4H88.3626V30.12H82.1226ZM91.1976 42V27.4H96.5776L102.078 39.34H102.758L102.358 39.7V27.4H105.438V42H100.018L94.5176 30.06H93.8376L94.2376 29.7V42H91.1976ZM111.597 42.08V39.02H114.317C114.997 39.02 115.61 38.92 116.157 38.72C116.704 38.5067 117.17 38.2133 117.557 37.84C117.944 37.4533 118.237 36.9933 118.437 36.46C118.637 35.9133 118.737 35.3133 118.737 34.66C118.737 33.98 118.637 33.3733 118.437 32.84C118.237 32.3067 117.944 31.8533 117.557 31.48C117.17 31.1067 116.704 30.8267 116.157 30.64C115.61 30.44 114.997 30.34 114.317 30.34H111.597V27.28H114.137C115.457 27.28 116.61 27.4733 117.597 27.86C118.584 28.2467 119.41 28.7733 120.077 29.44C120.744 30.1067 121.237 30.8733 121.557 31.74C121.89 32.5933 122.057 33.4933 122.057 34.44V34.88C122.057 35.76 121.89 36.6333 121.557 37.5C121.237 38.3533 120.744 39.1267 120.077 39.82C119.41 40.5 118.584 41.0467 117.597 41.46C116.61 41.8733 115.457 42.08 114.137 42.08H111.597ZM108.717 42.08V27.28H111.997V42.08H108.717ZM122.337 42L127.157 27.4H132.457L137.457 42H134.057L130.017 29.66L131.057 30.08H128.477L129.557 29.66L125.617 42H122.337ZM125.997 38.38L126.997 35.66H132.717L133.737 38.38H125.997ZM139.362 42V27.28H142.642V42H139.362ZM148.222 42L143.942 35.72H147.542L152.022 42H148.222ZM141.762 37.32V34.74H145.362C145.842 34.74 146.255 34.6467 146.602 34.46C146.962 34.26 147.235 33.9867 147.422 33.64C147.622 33.28 147.722 32.8667 147.722 32.4C147.722 31.9333 147.622 31.5267 147.422 31.18C147.235 30.82 146.962 30.5467 146.602 30.36C146.255 30.16 145.842 30.06 145.362 30.06H141.762V27.28H145.102C146.315 27.28 147.368 27.4667 148.262 27.84C149.155 28.2 149.842 28.74 150.322 29.46C150.802 30.18 151.042 31.0867 151.042 32.18V32.5C151.042 33.58 150.795 34.48 150.302 35.2C149.822 35.9067 149.135 36.44 148.242 36.8C147.362 37.1467 146.315 37.32 145.102 37.32H141.762ZM164.29 42.38C162.917 42.38 161.75 42.1267 160.79 41.62C159.844 41.1 159.124 40.3667 158.63 39.42C158.137 38.4733 157.89 37.3533 157.89 36.06V27.4H161.17V36.18C161.17 36.82 161.29 37.38 161.53 37.86C161.784 38.3267 162.137 38.6867 162.59 38.94C163.057 39.1933 163.624 39.32 164.29 39.32C164.97 39.32 165.537 39.1933 165.99 38.94C166.457 38.6867 166.81 38.3267 167.05 37.86C167.29 37.3933 167.41 36.8333 167.41 36.18V27.4H170.69V36.06C170.69 37.3533 170.444 38.4733 169.95 39.42C169.457 40.3667 168.737 41.1 167.79 41.62C166.844 42.1267 165.677 42.38 164.29 42.38ZM173.698 42V27.4H178.218L181.558 35.6H181.938L185.238 27.4H189.838V42H186.598V29.54L187.058 29.58L183.198 39.04H180.078L176.198 29.58L176.698 29.54V42H173.698ZM191.732 42L196.552 27.4H201.852L206.852 42H203.452L199.412 29.66L200.452 30.08H197.872L198.952 29.66L195.012 42H191.732ZM195.392 38.38L196.392 35.66H202.112L203.132 38.38H195.392ZM212.955 42V27.28H216.235V42H212.955ZM221.815 42L217.535 35.72H221.135L225.615 42H221.815ZM215.355 37.32V34.74H218.955C219.435 34.74 219.849 34.6467 220.195 34.46C220.555 34.26 220.829 33.9867 221.015 33.64C221.215 33.28 221.315 32.8667 221.315 32.4C221.315 31.9333 221.215 31.5267 221.015 31.18C220.829 30.82 220.555 30.5467 220.195 30.36C219.849 30.16 219.435 30.06 218.955 30.06H215.355V27.28H218.695C219.909 27.28 220.962 27.4667 221.855 27.84C222.749 28.2 223.435 28.74 223.915 29.46C224.395 30.18 224.635 31.0867 224.635 32.18V32.5C224.635 33.58 224.389 34.48 223.895 35.2C223.415 35.9067 222.729 36.44 221.835 36.8C220.955 37.1467 219.909 37.32 218.695 37.32H215.355ZM227.565 42V27.4H230.765V42H227.565ZM230.365 42V39.28H236.745V42H230.365ZM230.365 35.94V33.22H236.285V35.94H230.365ZM230.365 30.12V27.4H236.605V30.12H230.365ZM245.56 42.38C244.186 42.38 243.02 42.1267 242.06 41.62C241.113 41.1 240.393 40.3667 239.9 39.42C239.406 38.4733 239.16 37.3533 239.16 36.06V27.4H242.44V36.18C242.44 36.82 242.56 37.38 242.8 37.86C243.053 38.3267 243.406 38.6867 243.86 38.94C244.326 39.1933 244.893 39.32 245.56 39.32C246.24 39.32 246.806 39.1933 247.26 38.94C247.726 38.6867 248.08 38.3267 248.32 37.86C248.56 37.3933 248.68 36.8333 248.68 36.18V27.4H251.96V36.06C251.96 37.3533 251.713 38.4733 251.22 39.42C250.726 40.3667 250.006 41.1 249.06 41.62C248.113 42.1267 246.946 42.38 245.56 42.38ZM254.967 42V27.4H260.347L265.847 39.34H266.527L266.127 39.7V27.4H269.207V42H263.787L258.287 30.06H257.607L258.007 29.7V42H254.967ZM272.527 42V27.4H275.807V42H272.527ZM277.747 42L282.567 27.4H287.867L292.867 42H289.467L285.427 29.66L286.467 30.08H283.887L284.967 29.66L281.027 42H277.747ZM281.407 38.38L282.407 35.66H288.127L289.147 38.38H281.407ZM287.007 26.28C286.594 26.28 286.234 26.2267 285.927 26.12C285.634 26.0133 285.367 25.8933 285.127 25.76C284.901 25.6133 284.661 25.4867 284.407 25.38C284.154 25.2733 283.861 25.22 283.527 25.22C283.101 25.22 282.727 25.3 282.407 25.46C282.101 25.6067 281.854 25.7933 281.667 26.02L281.187 23.86C281.414 23.58 281.721 23.3467 282.107 23.16C282.494 22.96 282.967 22.86 283.527 22.86C283.954 22.86 284.314 22.9133 284.607 23.02C284.901 23.1267 285.167 23.2533 285.407 23.4C285.647 23.5333 285.894 23.6533 286.147 23.76C286.401 23.8667 286.694 23.92 287.027 23.92C287.454 23.92 287.821 23.84 288.127 23.68C288.447 23.52 288.701 23.3267 288.887 23.1L289.367 25.28C289.141 25.56 288.834 25.8 288.447 26C288.061 26.1867 287.581 26.28 287.007 26.28ZM301.147 42.38C299.827 42.38 298.674 42.1533 297.687 41.7C296.714 41.2333 295.907 40.6267 295.267 39.88C294.627 39.12 294.147 38.3 293.827 37.42C293.52 36.54 293.367 35.6933 293.367 34.88V34.44C293.367 33.5333 293.527 32.64 293.847 31.76C294.18 30.8667 294.674 30.06 295.327 29.34C295.98 28.62 296.794 28.0467 297.767 27.62C298.74 27.18 299.867 26.96 301.147 26.96C302.427 26.96 303.554 27.18 304.527 27.62C305.5 28.0467 306.314 28.62 306.967 29.34C307.62 30.06 308.114 30.8667 308.447 31.76C308.78 32.64 308.947 33.5333 308.947 34.44V34.88C308.947 35.6933 308.787 36.54 308.467 37.42C308.147 38.3 307.667 39.12 307.027 39.88C306.387 40.6267 305.574 41.2333 304.587 41.7C303.614 42.1533 302.467 42.38 301.147 42.38ZM301.147 39.32C301.84 39.32 302.46 39.2 303.007 38.96C303.567 38.72 304.04 38.3867 304.427 37.96C304.827 37.5333 305.127 37.04 305.327 36.48C305.527 35.92 305.627 35.32 305.627 34.68C305.627 34 305.52 33.38 305.307 32.82C305.107 32.2467 304.807 31.7533 304.407 31.34C304.02 30.9133 303.554 30.5867 303.007 30.36C302.46 30.1333 301.84 30.02 301.147 30.02C300.454 30.02 299.834 30.1333 299.287 30.36C298.74 30.5867 298.267 30.9133 297.867 31.34C297.48 31.7533 297.187 32.2467 296.987 32.82C296.787 33.38 296.687 34 296.687 34.68C296.687 35.32 296.787 35.92 296.987 36.48C297.187 37.04 297.48 37.5333 297.867 37.96C298.267 38.3867 298.74 38.72 299.287 38.96C299.834 39.2 300.454 39.32 301.147 39.32ZM322.551 42.38C321.245 42.38 320.105 42.1667 319.131 41.74C318.158 41.3 317.351 40.7133 316.711 39.98C316.085 39.2467 315.618 38.4333 315.311 37.54C315.005 36.6467 314.851 35.7533 314.851 34.86V34.42C314.851 33.5 315.005 32.6 315.311 31.72C315.618 30.84 316.078 30.04 316.691 29.32C317.318 28.6 318.091 28.0267 319.011 27.6C319.945 27.1733 321.018 26.96 322.231 26.96C323.551 26.96 324.718 27.2067 325.731 27.7C326.745 28.18 327.558 28.8533 328.171 29.72C328.785 30.5733 329.138 31.5667 329.231 32.7H325.951C325.871 32.1667 325.658 31.7 325.311 31.3C324.978 30.9 324.545 30.5867 324.011 30.36C323.491 30.1333 322.898 30.02 322.231 30.02C321.591 30.02 321.018 30.1333 320.511 30.36C320.018 30.5867 319.591 30.9067 319.231 31.32C318.885 31.7333 318.618 32.2267 318.431 32.8C318.258 33.36 318.171 33.98 318.171 34.66C318.171 35.3667 318.265 36.0133 318.451 36.6C318.651 37.1733 318.938 37.6733 319.311 38.1C319.685 38.5133 320.145 38.8333 320.691 39.06C321.251 39.2867 321.871 39.4 322.551 39.4C323.458 39.4 324.245 39.2133 324.911 38.84C325.578 38.4667 326.058 37.9733 326.351 37.36L325.951 39.6V36.12H328.971V39.24C328.345 40.2533 327.478 41.0333 326.371 41.58C325.278 42.1133 324.005 42.38 322.551 42.38ZM322.131 36.76V34.4H330.171V36.76H322.131ZM332.291 42V27.28H335.571V42H332.291ZM341.151 42L336.871 35.72H340.471L344.951 42H341.151ZM334.691 37.32V34.74H338.291C338.771 34.74 339.185 34.6467 339.531 34.46C339.891 34.26 340.165 33.9867 340.351 33.64C340.551 33.28 340.651 32.8667 340.651 32.4C340.651 31.9333 340.551 31.5267 340.351 31.18C340.165 30.82 339.891 30.5467 339.531 30.36C339.185 30.16 338.771 30.06 338.291 30.06H334.691V27.28H338.031C339.245 27.28 340.298 27.4667 341.191 27.84C342.085 28.2 342.771 28.74 343.251 29.46C343.731 30.18 343.971 31.0867 343.971 32.18V32.5C343.971 33.58 343.725 34.48 343.231 35.2C342.751 35.9067 342.065 36.44 341.171 36.8C340.291 37.1467 339.245 37.32 338.031 37.32H334.691ZM345.521 42L350.341 27.4H355.641L360.641 42H357.241L353.201 29.66L354.241 30.08H351.661L352.741 29.66L348.801 42H345.521ZM349.181 38.38L350.181 35.66H355.901L356.921 38.38H349.181ZM364.156 42V29.86H367.436V42H364.156ZM360.056 30.26V27.4H371.556V30.26H360.056ZM379.7 42.38C378.327 42.38 377.16 42.1267 376.2 41.62C375.254 41.1 374.534 40.3667 374.04 39.42C373.547 38.4733 373.3 37.3533 373.3 36.06V27.4H376.58V36.18C376.58 36.82 376.7 37.38 376.94 37.86C377.194 38.3267 377.547 38.6867 378 38.94C378.467 39.1933 379.034 39.32 379.7 39.32C380.38 39.32 380.947 39.1933 381.4 38.94C381.867 38.6867 382.22 38.3267 382.46 37.86C382.7 37.3933 382.82 36.8333 382.82 36.18V27.4H386.1V36.06C386.1 37.3533 385.854 38.4733 385.36 39.42C384.867 40.3667 384.147 41.1 383.2 41.62C382.254 42.1267 381.087 42.38 379.7 42.38ZM389.148 42V27.4H392.428V42H389.148ZM398.648 42V29.86H401.928V42H398.648ZM394.548 30.26V27.4H406.048V30.26H394.548ZM405.443 42L410.263 27.4H415.563L420.563 42H417.163L413.123 29.66L414.163 30.08H411.583L412.663 29.66L408.723 42H405.443ZM409.103 38.38L410.103 35.66H415.823L416.843 38.38H409.103Z" fill="white"/>
</g>
<defs>
<linearGradient id="paint0_linear_68_127" x1="114.935" y1="285.915" x2="531.235" y2="64.3128" gradientUnits="userSpaceOnUse">
<stop stop-color="#FBC327"/>
<stop offset="0.333333" stop-color="#FD9914"/>
<stop offset="0.666667" stop-color="#FE840A"/>
<stop offset="1" stop-color="#FF6F00"/>
</linearGradient>
</defs>
</svg>
