<svg width="51" height="51" viewBox="0 0 51 51" fill="none" xmlns="http://www.w3.org/2000/svg">
<g id="Component 1">
<path id="Vector" d="M37.6599 18.2684C37.6599 19.6497 37.1112 20.9745 36.1344 21.9512C35.1577 22.928 33.8329 23.4767 32.4516 23.4767C31.0703 23.4767 29.7455 22.928 28.7687 21.9512C27.792 20.9745 27.2433 19.6497 27.2433 18.2684C27.2433 16.887 27.792 15.5623 28.7687 14.5855C29.7455 13.6088 31.0703 13.06 32.4516 13.06C33.8329 13.06 35.1577 13.6088 36.1344 14.5855C37.1112 15.5623 37.6599 16.887 37.6599 18.2684ZM37.6474 32.5725C37.533 35.8827 36.7066 39.1293 35.2245 42.0913C33.8589 44.6737 31.8085 46.8302 29.2981 48.3241C26.7877 49.818 23.9144 50.5916 20.9933 50.56H18.9099V39.1017C18.9006 37.1707 18.1294 35.3214 16.764 33.956C15.3985 32.5906 13.5493 31.8194 11.6183 31.81H0.159928V29.7267C0.12839 26.8056 0.901999 23.9323 2.39589 21.4219C3.88978 18.9115 6.04623 16.861 8.62868 15.4955C11.5907 14.0134 14.8373 13.187 18.1474 13.0725C21.1825 9.15221 25.0803 5.98407 29.5381 3.81407C33.9958 1.64406 38.8938 0.530577 43.8516 0.560049C44.6766 0.554836 45.4945 0.712513 46.2584 1.02404C47.0223 1.33557 47.7172 1.79482 48.3032 2.37546C48.8893 2.9561 49.355 3.64671 49.6736 4.40769C49.9922 5.16867 50.1575 5.98506 50.1599 6.81005C50.1952 11.7772 49.0847 16.6855 46.9145 21.1536C44.7444 25.6218 41.5732 29.5293 37.6474 32.5725ZM4.5016 27.6434H9.2141C10.7613 24.1975 12.5787 20.8795 14.6495 17.7205C13.2112 18.0551 11.8175 18.5586 10.4974 19.2205C8.9098 20.0588 7.54056 21.2573 6.49937 22.72C5.45819 24.1826 4.774 25.8688 4.5016 27.6434ZM32.9995 36.0705C29.8405 38.1412 26.5225 39.9587 23.0766 41.5059V46.2184C24.8512 45.946 26.5373 45.2618 28 44.2206C29.4627 43.1794 30.6612 41.8102 31.4995 40.2225C32.1614 38.9025 32.6649 37.5088 32.9995 36.0705ZM45.9933 6.75172C45.9781 6.20935 45.7519 5.69432 45.3628 5.31614C44.9738 4.93797 44.4525 4.7265 43.9099 4.72672C33.1599 5.03297 25.8891 9.15171 18.8724 18.9392C16.9144 21.7584 15.1926 24.7345 13.7245 27.8371C15.9993 28.2608 18.0926 29.3633 19.7288 30.9995C21.365 32.6357 22.4675 34.729 22.8912 37.0038C25.9938 35.5357 28.9699 33.8139 31.7891 31.8559C41.5683 24.8309 45.687 17.56 45.9933 6.75172ZM12.9141 37.808C14.0782 38.984 14.7312 40.5719 14.7312 42.2267C14.7312 43.8815 14.0782 45.4694 12.9141 46.6455C11.0245 48.533 5.36826 49.6975 3.02243 50.1121L0.0932617 50.6267L0.607845 47.6975C1.02451 45.3517 2.18701 39.6955 4.07451 37.8059C5.26565 36.6698 6.84864 36.0361 8.49472 36.0365C10.1408 36.0369 11.7235 36.6713 12.9141 37.808ZM10.5766 42.2267C10.5773 41.953 10.5238 41.6819 10.419 41.4291C10.3142 41.1763 10.1603 40.9467 9.96618 40.7538C9.57549 40.3632 9.04569 40.1438 8.49326 40.1438C7.94084 40.1438 7.41103 40.3632 7.02034 40.7538C6.22606 42.1877 5.6682 43.7402 5.36826 45.3517C6.98036 45.0505 8.53352 44.492 9.96826 43.6975C10.1618 43.5047 10.3151 43.2754 10.4195 43.023C10.524 42.7705 10.5773 42.4999 10.5766 42.2267Z" fill="black"/>
</g>
</svg>
