<svg width="51" height="51" viewBox="0 0 51 51" fill="none" xmlns="http://www.w3.org/2000/svg">
<g id="Component 1">
<path id="Vector" d="M40.3333 8.89339H38.0417C37.5581 6.54217 36.2788 4.42953 34.4193 2.91155C32.5598 1.39358 30.2338 0.563089 27.8333 0.560059L23.6667 0.560059C21.2662 0.563089 18.9402 1.39358 17.0807 2.91155C15.2212 4.42953 13.9419 6.54217 13.4583 8.89339H11.1667C8.40501 8.8967 5.75741 9.99523 3.80462 11.948C1.85184 13.9008 0.753308 16.5484 0.75 19.3101L0.75 40.1434C0.753308 42.905 1.85184 45.5526 3.80462 47.5054C5.75741 49.4582 8.40501 50.5567 11.1667 50.5601H40.3333C43.095 50.5567 45.7426 49.4582 47.6954 47.5054C49.6482 45.5526 50.7467 42.905 50.75 40.1434V19.3101C50.7467 16.5484 49.6482 13.9008 47.6954 11.948C45.7426 9.99523 43.095 8.8967 40.3333 8.89339ZM23.6667 4.72673H27.8333C29.1214 4.73206 30.3763 5.13523 31.4265 5.88107C32.4766 6.62692 33.2707 7.679 33.7 8.89339H17.8C18.2293 7.679 19.0234 6.62692 20.0735 5.88107C21.1237 5.13523 22.3786 4.73206 23.6667 4.72673ZM11.1667 13.0601H40.3333C41.9909 13.0601 43.5806 13.7185 44.7528 14.8906C45.9249 16.0627 46.5833 17.6525 46.5833 19.3101V25.5601H4.91667V19.3101C4.91667 17.6525 5.57515 16.0627 6.74725 14.8906C7.91935 13.7185 9.50906 13.0601 11.1667 13.0601ZM40.3333 46.3934H11.1667C9.50906 46.3934 7.91935 45.7349 6.74725 44.5628C5.57515 43.3907 4.91667 41.801 4.91667 40.1434V29.7267H23.6667V31.8101C23.6667 32.3626 23.8862 32.8925 24.2769 33.2832C24.6676 33.6739 25.1975 33.8934 25.75 33.8934C26.3025 33.8934 26.8324 33.6739 27.2231 33.2832C27.6138 32.8925 27.8333 32.3626 27.8333 31.8101V29.7267H46.5833V40.1434C46.5833 41.801 45.9249 43.3907 44.7528 44.5628C43.5806 45.7349 41.9909 46.3934 40.3333 46.3934Z" fill="black"/>
</g>
</svg>
